<svg xmlns="http://www.w3.org/2000/svg" viewBox="0 0 800 480">
  <rect width="800" height="480" fill="#eef5f7"/>
  <rect x="20" y="20" width="760" height="440" rx="28" fill="#ffffff" stroke="#d7e3ea"/>
  <rect x="20" y="70" width="760" height="54" fill="#f5f8fb"/>
  <rect x="20" y="124" width="760" height="44" fill="#f9fbfd"/>
  <line x1="150" y1="70" x2="150" y2="440" stroke="#d7e3ea"/>
  <line x1="330" y1="70" x2="330" y2="440" stroke="#d7e3ea"/>
  <line x1="510" y1="70" x2="510" y2="440" stroke="#d7e3ea"/>
  <line x1="650" y1="70" x2="650" y2="440" stroke="#d7e3ea"/>
  <text x="46" y="105" fill="#16324f" font-size="22" font-weight="700" font-family="Arial">Time</text>
  <text x="175" y="105" fill="#16324f" font-size="28" font-weight="700" font-family="Arial">月 03-16</text>
  <text x="535" y="105" fill="#16324f" font-size="28" font-weight="700" font-family="Arial">火 03-17</text>
  <text x="170" y="154" fill="#425466" font-size="20" font-family="Arial">高橋 真由  5件 / 215分</text>
  <text x="530" y="154" fill="#425466" font-size="20" font-family="Arial">鈴木 健  4件 / 135分</text>
  <text x="46" y="210" fill="#7a8ea3" font-size="20" font-family="Arial">09:00</text>
  <text x="46" y="290" fill="#7a8ea3" font-size="20" font-family="Arial">10:00</text>
  <rect x="170" y="190" width="150" height="86" rx="18" fill="#fff9e8" stroke="#f0d77a" stroke-width="2"/>
  <text x="186" y="220" fill="#16324f" font-size="24" font-weight="700" font-family="Arial">青木 和子</text>
  <text x="186" y="250" fill="#425466" font-size="20" font-family="Arial">09:00-10:00</text>
  <rect x="530" y="190" width="120" height="58" rx="18" fill="#fff9e8" stroke="#f0d77a" stroke-width="2"/>
  <text x="546" y="220" fill="#16324f" font-size="22" font-weight="700" font-family="Arial">中尾 喜世子</text>
  <text x="546" y="244" fill="#425466" font-size="18" font-family="Arial">09:00-09:20</text>
  <rect x="548" y="256" width="192" height="112" rx="18" fill="#ffffff" stroke="#d7e3ea"/>
  <text x="570" y="294" fill="#16324f" font-size="22" font-weight="700" font-family="Arial">詳細ポップアップ</text>
  <text x="570" y="324" fill="#425466" font-size="18" font-family="Arial">日付・時間・担当・状態</text>
  <text x="570" y="350" fill="#425466" font-size="18" font-family="Arial">短い予定はホバーで確認</text>
</svg>
